<svg xmlns="http://www.w3.org/2000/svg" viewBox="0 0 46 46" width="43" height="43">
	<style>
		tspan { white-space:pre }
		.shp0 { fill: none;stroke: #afafaf;stroke-width: 2.6 } 
	</style>
	<g id="Layer">
		<g id="Layer">
			<g id="Layer">
				<path id="Layer" fill-rule="evenodd" class="shp0" d="M38.08 42.05L32.43 36.71L22.66 36.71C22.04 36.71 21.44 36.59 20.87 36.35C20.31 36.12 19.8 35.78 19.36 35.34C18.93 34.91 18.59 34.4 18.35 33.83C18.12 33.27 18 32.66 18 32.05L18 22.66C18 22.05 18.12 21.44 18.35 20.88C18.59 20.31 18.93 19.8 19.36 19.36C19.8 18.93 20.31 18.59 20.87 18.35C21.44 18.12 22.04 18 22.66 18L39.4 18C40.01 18 40.61 18.12 41.18 18.35C41.74 18.59 42.26 18.93 42.69 19.36C43.12 19.8 43.46 20.31 43.7 20.87C43.93 21.44 44.05 22.05 44.05 22.66L44.05 32.05C44.05 32.6 43.96 33.15 43.76 33.67C43.57 34.18 43.29 34.66 42.94 35.08C42.58 35.5 42.15 35.85 41.67 36.12C41.19 36.39 40.67 36.57 40.12 36.65L39.02 36.83L39.02 41.64C39.02 41.75 38.99 41.86 38.93 41.95C38.87 42.04 38.78 42.11 38.68 42.16C38.58 42.2 38.47 42.21 38.36 42.19C38.25 42.17 38.15 42.12 38.07 42.05L38.08 42.05Z" />
				<path id="Layer copy" fill-rule="evenodd" class="shp0" d="M9.34 27.39L14.96 22.02L24.73 21.96C25.34 21.96 25.95 21.84 26.51 21.6C27.08 21.36 27.59 21.02 28.02 20.58C28.45 20.15 28.79 19.63 29.02 19.07C29.25 18.5 29.37 17.9 29.36 17.28L29.31 7.89C29.31 7.28 29.19 6.67 28.95 6.11C28.71 5.54 28.37 5.03 27.93 4.6C27.5 4.17 26.98 3.83 26.42 3.6C25.85 3.37 25.24 3.25 24.63 3.26L7.89 3.34C7.28 3.35 6.68 3.47 6.11 3.71C5.55 3.95 5.04 4.29 4.61 4.73C4.18 5.16 3.84 5.68 3.61 6.24C3.37 6.81 3.26 7.41 3.26 8.03L3.31 17.42C3.31 17.97 3.41 18.52 3.61 19.03C3.8 19.55 4.08 20.02 4.44 20.44C4.8 20.86 5.23 21.21 5.72 21.47C6.2 21.74 6.72 21.92 7.27 22L8.37 22.17L8.39 26.98C8.39 27.09 8.42 27.2 8.49 27.29C8.55 27.38 8.63 27.45 8.73 27.5C8.83 27.54 8.95 27.55 9.05 27.53C9.16 27.51 9.26 27.46 9.34 27.39L9.34 27.39Z" />
			</g>
		</g>
	</g>
</svg>