<svg xmlns="http://www.w3.org/2000/svg" viewBox="0 0 45 38" width="43" height="36">
	<style>
		tspan { white-space:pre }
		.shp0 { fill: #afafaf } 
	</style>
	<g id="shop---inactive-">
		<path id="Combined-Shape" fill-rule="evenodd" class="shp0" d="M1.91 11.37L43.09 11.37L43.09 34.41C43.09 36.2 41.64 37.64 39.85 37.64L5.15 37.64C3.36 37.64 1.91 36.2 1.91 34.41L1.91 11.37ZM4.11 13.57L4.11 34.41C4.11 34.98 4.58 35.44 5.15 35.44L39.85 35.44C40.42 35.44 40.89 34.98 40.89 34.41L40.89 13.57L4.11 13.57Z" />
		<path id="Path" class="shp0" d="M10.42 23.74L17.18 23.74L17.18 36.75L19.38 36.75L19.38 22.9C19.38 22.15 18.78 21.54 18.03 21.54L9.58 21.54C8.83 21.54 8.22 22.15 8.22 22.9L8.22 36.75L10.42 36.75L10.42 23.74Z" />
		<path id="Rectangle-Copy-8" fill-rule="evenodd" class="shp0" d="M36.33 31.98L24.09 31.98C23.34 31.98 22.73 31.37 22.73 30.62L22.73 22.9C22.73 22.15 23.34 21.54 24.09 21.54L36.33 21.54C37.08 21.54 37.69 22.15 37.69 22.9L37.69 30.62C37.69 31.37 37.08 31.98 36.33 31.98ZM35.49 29.78L35.49 23.74L24.93 23.74L24.93 29.78L35.49 29.78Z" />
		<path id="Rectangle-Copy-10" fill-rule="evenodd" class="shp0" d="M28.07 9.73C29.29 9.73 30.27 10.71 30.27 11.93C30.27 16.16 26.84 19.6 22.6 19.6L22.4 19.6C18.16 19.6 14.73 16.16 14.73 11.93C14.73 10.71 15.71 9.73 16.93 9.73L28.07 9.73ZM28.07 11.93L16.93 11.93C16.93 14.95 19.38 17.4 22.4 17.4L22.6 17.4C25.62 17.4 28.07 14.95 28.07 11.93Z" />
		<path id="Rectangle-Copy-10" fill-rule="evenodd" class="shp0" d="M41.44 9.73C42.66 9.73 43.64 10.71 43.64 11.93C43.64 16.16 40.21 19.6 35.97 19.6L35.77 19.6C31.53 19.6 28.1 16.16 28.1 11.93C28.1 10.71 29.08 9.73 30.3 9.73L41.44 9.73ZM41.44 11.93L30.3 11.93C30.3 14.95 32.75 17.4 35.77 17.4L35.97 17.4C38.99 17.4 41.44 14.95 41.44 11.93Z" />
		<path id="Rectangle-Copy-10" fill-rule="evenodd" class="shp0" d="M14.7 9.73C15.92 9.73 16.9 10.71 16.9 11.93C16.9 16.16 13.47 19.6 9.23 19.6L9.03 19.6C4.79 19.6 1.36 16.16 1.36 11.93C1.36 10.71 2.34 9.73 3.56 9.73L14.7 9.73ZM14.7 11.93L3.56 11.93C3.56 14.95 6.01 17.4 9.03 17.4L9.23 17.4C12.25 17.4 14.7 14.95 14.7 11.93Z" />
		<path id="Path" fill-rule="evenodd" class="shp0" d="M41.79 12.49L3.21 12.49C2.75 12.49 2.3 12.35 1.92 12.09C0.86 11.38 0.58 9.95 1.29 8.89L5.7 2.32C6.49 1.14 7.82 0.43 9.24 0.43L35.76 0.43C37.18 0.43 38.51 1.14 39.3 2.32L43.71 8.89C44.42 9.95 44.14 11.38 43.08 12.09C42.7 12.35 42.25 12.49 41.79 12.49ZM41.79 10.29C41.82 10.29 41.84 10.28 41.85 10.27C41.91 10.23 41.92 10.17 41.88 10.12L37.47 3.55C37.09 2.97 36.44 2.63 35.76 2.63L9.24 2.63C8.56 2.63 7.91 2.97 7.53 3.55L3.12 10.12C3.08 10.17 3.09 10.23 3.15 10.27C3.16 10.28 3.18 10.29 3.21 10.29L41.79 10.29Z" />
		<path id="Rectangle-Copy-16" fill-rule="evenodd" class="shp0" d="M28.08 0.43L31.23 12.49L13.77 12.49L16.92 0.43L28.08 0.43ZM16.61 10.29L28.39 10.29L26.39 2.63L18.61 2.63L16.61 10.29Z" />
	</g>
</svg>