<svg xmlns="http://www.w3.org/2000/svg" viewBox="0 0 43 38" width="43" height="38">
	<style>
		tspan { white-space:pre }
		.shp0 { fill: #afafaf } 
	</style>
	<g id="shop---inactive-">
		<path id="Combined-Shape" fill-rule="evenodd" class="shp0" d="M0.91 11.37L42.09 11.37L42.09 34.41C42.09 36.2 40.64 37.64 38.85 37.64L4.15 37.64C2.36 37.64 0.91 36.2 0.91 34.41L0.91 11.37ZM3.11 13.57L3.11 34.41C3.11 34.98 3.58 35.44 4.15 35.44L38.85 35.44C39.42 35.44 39.89 34.98 39.89 34.41L39.89 13.57L3.11 13.57Z" />
		<path id="Path" class="shp0" d="M9.42 23.74L16.18 23.74L16.18 36.75L18.38 36.75L18.38 22.9C18.38 22.15 17.78 21.54 17.03 21.54L8.58 21.54C7.83 21.54 7.22 22.15 7.22 22.9L7.22 36.75L9.42 36.75L9.42 23.74Z" />
		<path id="Rectangle-Copy-8" fill-rule="evenodd" class="shp0" d="M35.33 31.98L23.09 31.98C22.34 31.98 21.73 31.37 21.73 30.62L21.73 22.9C21.73 22.15 22.34 21.54 23.09 21.54L35.33 21.54C36.08 21.54 36.69 22.15 36.69 22.9L36.69 30.62C36.69 31.37 36.08 31.98 35.33 31.98ZM34.49 29.78L34.49 23.74L23.93 23.74L23.93 29.78L34.49 29.78Z" />
		<path id="Rectangle-Copy-10" fill-rule="evenodd" class="shp0" d="M27.07 9.73C28.29 9.73 29.27 10.71 29.27 11.93C29.27 16.16 25.84 19.6 21.6 19.6L21.4 19.6C17.16 19.6 13.73 16.16 13.73 11.93C13.73 10.71 14.71 9.73 15.93 9.73L27.07 9.73ZM27.07 11.93L15.93 11.93C15.93 14.95 18.38 17.4 21.4 17.4L21.6 17.4C24.62 17.4 27.07 14.95 27.07 11.93Z" />
		<path id="Rectangle-Copy-10" fill-rule="evenodd" class="shp0" d="M40.44 9.73C41.66 9.73 42.64 10.71 42.64 11.93C42.64 16.16 39.21 19.6 34.97 19.6L34.77 19.6C30.53 19.6 27.1 16.16 27.1 11.93C27.1 10.71 28.08 9.73 29.3 9.73L40.44 9.73ZM40.44 11.93L29.3 11.93C29.3 14.95 31.75 17.4 34.77 17.4L34.97 17.4C37.99 17.4 40.44 14.95 40.44 11.93Z" />
		<path id="Rectangle-Copy-10" fill-rule="evenodd" class="shp0" d="M13.7 9.73C14.92 9.73 15.9 10.71 15.9 11.93C15.9 16.16 12.47 19.6 8.23 19.6L8.03 19.6C3.79 19.6 0.36 16.16 0.36 11.93C0.36 10.71 1.34 9.73 2.56 9.73L13.7 9.73ZM13.7 11.93L2.56 11.93C2.56 14.95 5.01 17.4 8.03 17.4L8.23 17.4C11.25 17.4 13.7 14.95 13.7 11.93Z" />
		<path id="Path" fill-rule="evenodd" class="shp0" d="M40.79 12.49L2.21 12.49C1.75 12.49 1.3 12.35 0.92 12.09C-0.14 11.38 -0.42 9.95 0.29 8.89L4.7 2.32C5.49 1.14 6.82 0.43 8.24 0.43L34.76 0.43C36.18 0.43 37.51 1.14 38.3 2.32L42.71 8.89C43.42 9.95 43.14 11.38 42.08 12.09C41.7 12.35 41.25 12.49 40.79 12.49ZM40.79 10.29C40.82 10.29 40.84 10.28 40.85 10.27C40.91 10.23 40.92 10.17 40.88 10.12L36.47 3.55C36.09 2.97 35.44 2.63 34.76 2.63L8.24 2.63C7.56 2.63 6.91 2.97 6.53 3.55L2.12 10.12C2.08 10.17 2.09 10.23 2.15 10.27C2.16 10.28 2.18 10.29 2.21 10.29L40.79 10.29Z" />
		<path id="Rectangle-Copy-16" fill-rule="evenodd" class="shp0" d="M27.08 0.43L30.23 12.49L12.77 12.49L15.92 0.43L27.08 0.43ZM15.61 10.29L27.39 10.29L25.39 2.63L17.61 2.63L15.61 10.29Z" />
	</g>
</svg>